Coordinates
version=1
nRows=21
nColumns=33
inDegrees=yes

Units are S.I. units (second, meters, Newtons, ...)
Angles are in degrees.

endheader
time	ground_thorax_rot_x	ground_thorax_rot_y	ground_thorax_rot_z	ground_thorax_tx	ground_thorax_ty	ground_thorax_tz	clav_prot_r	clav_elev_r	scapula_abduction_r	scapula_elevation_r	scapula_upward_rot_r	scapula_winging_r	shoulder_elv_r	plane_of_elev_r	axial_rot_r	elbow_flexion_r	pro_sup_r	wrist_flex_r	wrist_dev_r	clav_prot_l	clav_elev_l	scapula_abduction_l	scapula_elevation_l	scapula_upward_rot_l	scapula_winging_l	shoulder_elv_l	plane_of_elev_l	axial_rot_l	elbow_flexion_l	pro_sup_l	wrist_flex_l	wrist_dev_l
      6.55000000	     32.87354753	     30.49041506	     35.26376998	    -54.65045235	    805.38697061	    -41.54654445	     12.78514061	     34.98394468	     26.27256675	     45.00000000	    -45.00000000	    992.52801612	  -2087.39115463	     20.72037562	   -156.62033998	   1800.49831074	   -196.65203401	     11.90001971	     14.73272930	     -9.43176731	    -45.00000000	    -37.35953579	     45.00000000	    -45.00000000	  -5655.30205246	  -1362.90289797	     24.09235053	     22.29874407	   1429.57062649	     41.69140676	     13.58613839	    -17.00892647
      6.56000000	     32.89876357	     30.19252741	     35.14540879	    -56.28555846	    806.80719952	    -41.52086374	     12.79550595	     34.98291148	     26.35976212	     45.00000000	    -45.00000000	    992.41496467	  -2087.35181463	     20.76174282	   -156.65114005	   1800.52131787	   -197.00763447	     11.87035887	     14.77298493	     -9.44845971	    -45.00000000	    -37.39035520	     45.00000000	    -45.00000000	  -5655.28522886	  -1362.81843937	     24.12107749	     22.46796274	   1429.59773316	     41.82062740	     13.62090360	    -17.12122214
      6.57000000	     32.82067203	     30.01005772	     35.15410351	    -57.88611834	    808.22777154	    -41.51318443	     12.80536594	     34.91727901	     26.29330640	     45.00000000	    -45.00000000	    992.30748825	  -2087.28647999	     20.75430279	   -156.62755169	   1800.46269375	   -197.40155455	     11.86554585	     14.79212034	     -9.30971160	    -45.00000000	    -37.49771411	     45.00000000	    -45.00000000	  -5655.21962495	  -1362.73670775	     24.17679043	     22.65263559	   1429.66439489	     41.95371996	     13.59987672	    -17.18735854
      6.58000000	     32.77896633	     29.79508315	     35.11918568	    -59.45203625	    809.65353941	    -41.52457828	     12.81641365	     34.89765056	     26.30393654	     45.00000000	    -45.00000000	    992.19394672	  -2087.25787087	     20.76651920	   -156.69097859	   1800.46329739	   -197.84313952	     11.83914110	     14.81169402	     -9.23424262	    -45.00000000	    -37.57945407	     45.00000000	    -45.00000000	  -5655.14658976	  -1362.65803290	     24.21807089	     22.73390305	   1429.73531046	     42.08103397	     13.60175152	    -17.28085356
      6.59000000	     32.75323246	     29.51857993	     35.03842989	    -60.97796474	    811.08417296	    -41.55553917	     12.79770043	     34.87598223	     26.34180000	     45.00000000	    -45.00000000	    992.08401597	  -2087.24398128	     20.81354174	   -156.69979612	   1800.41968682	   -198.28221884	     11.82367691	     14.85410434	     -9.12374948	    -45.00000000	    -37.68749235	     45.00000000	    -45.00000000	  -5655.06094859	  -1362.58578660	     24.30544206	     22.98647098	   1429.76152529	     42.20072787	     13.62605729	    -17.37952869
      6.60000000	     32.80291961	     29.22044760	     34.80471054	    -62.46225353	    812.52205880	    -41.60642346	     12.80219350	     34.86406637	     26.23835895	     45.00000000	    -45.00000000	    991.96376221	  -2087.15672467	     21.02415183	   -156.70260808	   1800.34573724	   -198.70869978	     11.80171920	     14.92546357	     -8.94774807	    -45.00000000	    -37.82062646	     45.00000000	    -45.00000000	  -5654.96066021	  -1362.61517702	     24.49745827	     23.19560146	   1429.74188300	     42.31061823	     13.69937338	    -17.50601167
      6.61000000	     32.65122101	     29.18307216	     34.95826724	    -63.90353544	    813.96949542	    -41.67701015	     12.80251934	     34.81716131	     26.35747822	     45.00000000	    -45.00000000	    991.80649639	  -2087.17055408	     20.81865506	   -156.84901212	   1800.37251815	   -199.16527189	     11.80781767	     14.87721469	     -8.91947047	    -45.00000000	    -37.86059731	     45.00000000	    -45.00000000	  -5654.96510318	  -1362.45605726	     24.44221010	     23.32239511	   1429.84429469	     42.39113740	     13.59647537	    -17.53038505
      6.62000000	     32.58171311	     28.92832706	     34.93074044	    -65.29820388	    815.42613475	    -41.76678359	     12.81977887	     34.74842987	     26.30683825	     45.00000000	    -45.00000000	    991.81056632	  -2087.08768192	     20.85259621	   -156.88234995	   1800.28807917	   -199.66662148	     11.78901221	     14.90919132	     -8.81243444	    -45.00000000	    -37.95149112	     45.00000000	    -45.00000000	  -5654.87209785	  -1362.34224848	     24.43839470	     23.33640751	   1429.89172372	     42.47617341	     13.61671654	    -17.63262353
      6.63000000	     32.44580361	     28.83329205	     34.99668251	    -66.64542776	    816.89389340	    -41.87472917	     12.83326624	     34.69108081	     26.25971426	     45.00000000	    -45.00000000	    991.69703382	  -2087.02166498	     20.85271436	   -156.96414755	   1800.23607656	   -200.20827912	     11.77670018	     14.89560130	     -8.65609565	    -45.00000000	    -38.06278841	     45.00000000	    -45.00000000	  -5654.82538156	  -1362.25240110	     24.46150210	     23.47194415	   1429.99678586	     42.53943322	     13.53676991	    -17.68592334
      6.64000000	     32.35223017	     28.55528147	     34.98579172	    -67.94352962	    818.37371125	    -41.99976796	     12.83203949	     34.70663974	     26.41067415	     45.00000000	    -45.00000000	    991.61659876	  -2087.03215612	     20.89835325	   -157.04917613	   1800.21021385	   -200.72791349	     11.77393890	     14.89680340	     -8.64550266	    -45.00000000	    -38.15625556	     45.00000000	    -45.00000000	  -5654.80454436	  -1362.17531964	     24.52203360	     23.59869176	   1430.04389403	     42.58246868	     13.54183127	    -17.80523261
      6.65000000	     32.57997171	     28.27872080	     34.40654511	    -69.19062993	    819.86506612	    -42.14029753	     12.80137420	     34.68100431	     26.25628287	     45.00000000	    -45.00000000	    991.39475156	  -2086.96476439	     21.17656433	   -156.99273974	   1800.03189386	   -201.14081784	     11.76967480	     15.07939487	     -8.32166695	    -45.00000000	    -38.32006780	     45.00000000	    -45.00000000	  -5654.66160042	  -1362.42214329	     24.93457891	     23.90826888	   1429.99313132	     42.60484477	     13.73195235	    -18.09565164
      6.66000000	     32.26209958	     28.23810837	     34.88454542	    -70.39077446	    821.37412133	    -42.29542818	     12.91978467	     34.55844685	     26.26761925	     45.00000000	    -45.00000000	    991.48114865	  -2086.84991702	     21.02179180	   -157.24836362	   1800.06893016	   -201.67809796	     11.76331939	     14.90799530	     -8.50071426	    -45.00000000	    -38.19672062	     45.00000000	    -45.00000000	  -5654.84135026	  -1361.97229369	     24.53979199	     23.64814974	   1430.09410266	     42.61096095	     13.43319248	    -17.88646444
      6.67000000	     32.48799099	     27.89495589	     34.38323338	    -71.53893405	    822.89457204	    -42.46270333	     12.74282228	     34.70375855	     26.66613602	     45.00000000	    -45.00000000	    991.11960902	  -2087.10261509	     21.04076411	   -157.26038372	   1799.97901354	   -202.10941787	     11.81222691	     15.13160180	     -8.12844723	    -45.00000000	    -38.50240225	     45.00000000	    -45.00000000	  -5654.35698631	  -1362.28559899	     25.08706694	     24.19512749	   1430.04697998	     42.58541229	     13.88897110	    -18.48549543
      6.68000000	     32.11622450	     27.97703012	     34.84139695	    -72.64159621	    824.43368534	    -42.64112217	     12.89028537	     34.40577912	     26.26847533	     45.00000000	    -45.00000000	    991.35470829	  -2086.79752091	     20.96197622	   -157.51779079	   1799.87523434	   -202.65159612	     11.77183002	     14.97870145	     -8.18076021	    -45.00000000	    -38.49533096	     45.00000000	    -45.00000000	  -5654.66317075	  -1361.80447619	     24.55813389	     24.00284428	   1430.20083922	     42.54939811	     13.40378124	    -18.06952204
      6.69000000	     32.06043673	     27.86293557	     34.81034749	    -73.69526977	    825.98440226	    -42.82773329	     12.89724050	     34.46704792	     26.31967087	     45.00000000	    -45.00000000	    991.15408717	  -2086.81510910	     21.01043433	   -157.64577365	   1799.75873648	   -203.19624275	     11.83243703	     14.98517343	     -8.03398401	    -45.00000000	    -38.62937228	     45.00000000	    -45.00000000	  -5654.49969528	  -1361.80948207	     24.71192722	     24.18062807	   1430.21552991	     42.49446239	     13.48436787	    -18.24517725
      6.70000000	     32.01048983	     27.72830580	     34.76757459	    -74.70367748	    827.54770636	    -43.02069322	     12.92936579	     34.45056458	     26.38080540	     45.00000000	    -45.00000000	    991.07618207	  -2086.81535754	     21.01319790	   -157.79435676	   1799.72531695	   -203.68353884	     11.84876425	     14.98325669	     -8.02003473	    -45.00000000	    -38.70677206	     45.00000000	    -45.00000000	  -5654.47898848	  -1361.73066671	     24.73053693	     24.32838935	   1430.28255516	     42.40760464	     13.49901650	    -18.36692338
      6.71000000	     32.00405275	     27.46449076	     34.67578210	    -75.66880714	    829.12051216	    -43.21769315	     12.91286061	     34.47642354	     26.58135784	     45.00000000	    -45.00000000	    990.98704057	  -2086.89365196	     21.06180809	   -157.93475521	   1799.69156382	   -204.09849771	     11.89422225	     15.00396364	     -7.93146764	    -45.00000000	    -38.78351580	     45.00000000	    -45.00000000	  -5654.38292404	  -1361.69238207	     24.77985388	     24.54035822	   1430.28728947	     42.30457971	     13.55315654	    -18.51564548
      6.72000000	     31.92039429	     27.43952734	     34.67843362	    -76.59444553	    830.70123851	    -43.41710233	     12.91521992	     34.37325776	     26.50773728	     45.00000000	    -45.00000000	    990.92975434	  -2086.81080885	     21.03455433	   -158.11189194	   1799.56357042	   -204.49120420	     11.93324847	     15.01626120	     -7.76068850	    -45.00000000	    -38.88739701	     45.00000000	    -45.00000000	  -5654.34779592	  -1361.62504198	     24.84286038	     24.66128702	   1430.31053739	     42.18176504	     13.57181482	    -18.57534308
      6.73000000	     31.92195837	     27.20834645	     34.59591204	    -77.48462483	    832.28857125	    -43.61773450	     12.93900686	     34.41919883	     26.69940357	     45.00000000	    -45.00000000	    990.81828957	  -2086.86926536	     21.09469350	   -158.28726606	   1799.52088409	   -204.82484786	     11.99351322	     15.02483149	     -7.78881196	    -45.00000000	    -38.92414176	     45.00000000	    -45.00000000	  -5654.31436834	  -1361.56378822	     24.86205502	     24.85414229	   1430.33695795	     42.03621910	     13.62305418	    -18.70808155
      6.74000000	     31.83357548	     27.17355137	     34.59958770	    -78.34043032	    833.87535433	    -43.81812228	     12.91109233	     34.31540598	     26.60788875	     45.00000000	    -45.00000000	    990.77723777	  -2086.78781845	     21.09152489	   -158.46884546	   1799.38965745	   -205.11473171	     12.05763399	     15.03132765	     -7.53086437	    -45.00000000	    -39.07730943	     45.00000000	    -45.00000000	  -5654.22465504	  -1361.51360153	     24.95516527	     25.03160900	   1430.32189820	     41.88630989	     13.66369094	    -18.75774346
      6.75000000	     31.77399946	     27.08028707	     34.57955135	    -79.16360461	    835.45652364	    -44.01750970	     12.92790715	     34.28836028	     26.59694296	     45.00000000	    -45.00000000	    990.71378270	  -2086.76088769	     21.13637613	   -158.67004422	   1799.31030104	   -205.35986744	     12.11929207	     15.02949109	     -7.47189621	    -45.00000000	    -39.15934991	     45.00000000	    -45.00000000	  -5654.20638641	  -1361.45561108	     24.98876140	     25.18762690	   1430.33031850	     41.71793078	     13.70389816	    -18.82309280
